<?xml version="1.0" encoding="UTF-8"?>
<!DOCTYPE svg PUBLIC "-//W3C//DTD SVG 1.1//EN" "http://www.w3.org/Graphics/SVG/1.1/DTD/svg11.dtd">
<!-- Creator: CorelDRAW -->
<svg xmlns="http://www.w3.org/2000/svg" xml:space="preserve" width="250.76mm" height="229.257mm" version="1.1" style="shape-rendering:geometricPrecision; text-rendering:geometricPrecision; image-rendering:optimizeQuality; fill-rule:evenodd; clip-rule:evenodd"
viewBox="0 0 25076.04 22925.73"
 xmlns:xlink="http://www.w3.org/1999/xlink"
 xmlns:xodm="http://www.corel.com/coreldraw/odm/2003">
 <defs>
  <style type="text/css">
   <![CDATA[
    .fil0 {fill:#077058;fill-rule:nonzero}
    .fil2 {fill:#70BA59;fill-rule:nonzero}
    .fil1 {fill:white;fill-rule:nonzero}
   ]]>
  </style>
 </defs>
 <g id="Layer_x0020_1">
  <metadata id="CorelCorpID_0Corel-Layer"/>
  <g id="_2675433628752">
   <path class="fil0" d="M5194.76 9252.3c948.98,-3156.76 3877.31,-5456.73 7343.25,-5456.73 3465.94,0 6394.27,2299.97 7343.25,5456.73l3905.81 0c-1030.25,-5272.87 -5674.57,-9252.3 -11249.06,-9252.3 -5574.45,0 -10218.81,3979.43 -11249.06,9252.3l3905.81 0z"/>
   <path class="fil0" d="M19881.24 13673.39c-948.97,3156.8 -3877.27,5456.77 -7343.21,5456.77 -3465.94,0 -6394.27,-2299.97 -7343.28,-5456.77l-3905.78 0c1030.25,5272.9 5674.57,9252.34 11249.06,9252.34 5574.45,0 10218.77,-3979.44 11249.06,-9252.34l-3905.85 0z"/>
   <path class="fil0" d="M24026.14 13161.83l-22976.24 0c-579.83,0 -1049.9,-470.04 -1049.9,-1049.9l0 -1298.16c0,-579.86 470.07,-1049.9 1049.9,-1049.9l22976.24 0c579.86,0 1049.9,470.04 1049.9,1049.9l0 1298.16c0,579.86 -470.04,1049.9 -1049.9,1049.9z"/>
   <path class="fil1" d="M19460.32 11462.85c0,3823.08 -3099.22,6922.31 -6922.31,6922.31 -3823.09,0 -6922.28,-3099.23 -6922.28,-6922.31 0,-3823.09 3099.19,-6922.31 6922.28,-6922.31 3823.09,0 6922.31,3099.22 6922.31,6922.31z"/>
   <path class="fil2" d="M19589.9 11462.85c0,1947.3 -789.33,3710.28 -2065.47,4986.42 -1276.14,1276.14 -3039.12,2065.47 -4986.42,2065.47 -1947.3,0 -3710.27,-789.32 -4986.4,-2065.46 -1276.14,-1276.15 -2065.46,-3039.13 -2065.46,-4986.43 0,-1947.3 789.32,-3710.29 2065.46,-4986.43 1276.13,-1276.14 3039.1,-2065.46 4986.4,-2065.46 1947.31,0 3710.28,789.32 4986.42,2065.47 1276.15,1276.14 2065.47,3039.11 2065.47,4986.42zm-2248.69 4803.2c1229.22,-1229.22 1989.53,-2927.42 1989.53,-4803.2 0,-1875.78 -760.3,-3573.98 -1989.53,-4803.2 -1229.22,-1229.23 -2927.42,-1989.53 -4803.2,-1989.53 -1875.78,0 -3573.97,760.3 -4803.18,1989.52 -1229.22,1229.22 -1989.52,2927.42 -1989.52,4803.21 0,1875.78 760.3,3573.98 1989.52,4803.21 1229.21,1229.22 2927.4,1989.52 4803.18,1989.52 1875.78,0 3573.98,-760.31 4803.2,-1989.53z"/>
   <path class="fil2" d="M11362.35 12499.06c1136.75,404.18 2102.83,1080.95 2959.84,1921.69 509.48,499.78 980.54,1033.28 1415.73,1598.68 21.59,27.98 40.85,57.71 73.59,104.25 -208.81,126.75 -410.53,251.7 -616.34,369.64 -17.78,10.19 -69.21,-19.09 -93.45,-42.2 -504.75,-481.47 -984.14,-992.64 -1515.71,-1442.26 -1473.98,-1246.78 -3112.56,-2213.43 -4961.22,-2804.26 -380.05,-121.46 -753.99,-262.19 -1130.72,-394.06 0.38,-10.72 0.84,-21.48 1.27,-32.24 357.08,16.37 714.12,32.77 1079.36,49.57 0,0 979.77,28.82 2787.65,671.19z"/>
   <path class="fil0" d="M14879.51 16659.63c-161.29,62.52 -303.53,121.5 -448.38,173.11 -396.77,141.36 -806.06,228.85 -1224.91,269.1 -42.62,4.09 -102.52,-12.73 -130.81,-42.37 -401.61,-421 -787.05,-858.09 -1200.54,-1266.89 -637.29,-630.1 -1282.31,-1253.39 -1944.23,-1857.41 -680.65,-621 -1463.6,-1105.57 -2239.43,-1596.85 -102.45,-64.88 -203.73,-131.62 -318.24,-205.71 182.88,-25.01 2162.91,699.24 2784.33,998.43 889,428.03 1718.31,952.75 2513.82,1532.93 799.54,583.07 1511.34,1263.33 2208.39,1995.66z"/>
   <path class="fil0" d="M17580.05 11854.14c-1313.6,428.41 -2470.64,1152.6 -3602.81,1901.16 -406.4,-303.11 -807.79,-602.51 -1208.16,-901.11 2405.49,-1140.46 4809.49,-1010.17 4810.97,-1000.05z"/>
   <path class="fil2" d="M7322.18 12546.88c940.54,564.3 1860.51,1154.96 2649.82,1916.15 847.9,817.74 1670.33,1661.86 2503.38,2494.98 40.29,40.29 75.64,85.52 135.47,153.74 -65.05,0 -101.85,0.78 -138.57,-0.07 -505.04,-11.99 -999.88,-88.83 -1481.81,-241.19 -46.78,-14.82 -98.04,-49.99 -124.18,-90.59 -609.25,-945.17 -1320.66,-1807.53 -2091.9,-2624.18 -396.84,-420.19 -770.33,-862.47 -1155.74,-1293.53 -96.09,-107.52 -197.48,-210.32 -296.47,-315.31z"/>
   <path class="fil2" d="M15304.26 15072.44c-357.54,-368.26 -708.98,-730.25 -1068.18,-1100.24 1078.3,-713.1 2172.23,-1396.79 3414.01,-1807.84 -58.7,435.29 -1639.89,2392.82 -2345.83,2908.08z"/>
   <path class="fil0" d="M17913.37 12692.64c-214.84,1306.62 -851.43,2388.2 -1892.44,3260.87 -3.81,3.17 -9.7,2.64 -12.98,-1.13 -22.58,-25.86 -40.26,-44.91 -56.27,-65.23 -147.78,-187.18 -295.21,-374.58 -443.97,-563.56 -2.93,-3.74 -2.51,-9.18 1.02,-12.32 876.62,-793.25 1647.82,-1667.58 2263.35,-2672.08 44.13,-72 155.01,-29.88 141.29,53.45z"/>
   <path class="fil0" d="M7548.21 13106.71c988.84,1197.47 2135.05,2231.74 2966.97,3541.11 -1169.18,-310.09 -2904.95,-2370.74 -2966.97,-3541.11z"/>
   <path class="fil2" d="M10087.18 7334.8c-877.61,521.51 -1569.65,1215.81 -2008.4,2131.66 -923.33,1927.33 -727.78,3760.18 509.69,5492.89 50.91,71.29 61.07,171.76 55.11,269.52 -2166.59,-2198.51 -1657.57,-6315.89 1443.6,-7894.07z"/>
   <path class="fil2" d="M7172.21 11612.74c-671.4,-504.75 -995.04,-1379.25 -746.62,-2017.64 711.2,352.57 1012.16,1165.86 746.62,2017.64z"/>
   <path class="fil2" d="M6783.57 8294.8c621.17,340.61 874.29,990.07 689.33,1768.83 -642.2,-439.38 -929.53,-1318.26 -689.33,-1768.83z"/>
   <path class="fil2" d="M8000.28 8975.94c-355.88,-697.76 -295.74,-1386.84 159.14,-1822.84 419.06,654.89 353.3,1407.86 -159.14,1822.84z"/>
   <path class="fil2" d="M8684.41 8732.85c539.15,-439.32 1165.75,-524.87 1612.01,-233.68 -367.38,510.54 -1078.83,619.69 -1612.01,233.68z"/>
   <path class="fil2" d="M11101.45 5949.11c-27.52,681.35 -337.4,1037.2 -1053.04,1231.62 0.99,-578.31 457.94,-1121.91 1053.04,-1231.62z"/>
   <path class="fil2" d="M9379.59 6356.39c382.9,571.36 244.33,1225.97 -321.31,1518.32 -239.15,-516.29 -114.41,-1105.78 321.31,-1518.32z"/>
   <path class="fil2" d="M11089.91 7992.43c-547.9,314.85 -1112.66,244.4 -1444.45,-180.23 385.98,-326.15 987.92,-251.04 1444.45,180.23z"/>
   <path class="fil2" d="M12278.57 7629.56c-612.56,179.52 -1096.12,49.95 -1476.8,-430.75 442.53,-235.9 1070.36,-61.03 1476.8,430.75z"/>
   <path class="fil2" d="M11919.9 6829.47c551.64,-18.7 951.16,172.58 1223.54,620.11 -439.31,154.2 -874.64,-58.63 -1223.54,-620.11z"/>
   <path class="fil2" d="M14095.27 7451.76c-657.82,35.41 -997.34,-155.72 -1201.1,-658.78 513.64,3.42 920.19,178.22 1201.1,658.78z"/>
   <path class="fil2" d="M12339.62 5813.61c-16.3,486.52 -293.69,800.35 -855.91,968.34 65.23,-556.75 360.43,-890.8 855.91,-968.34z"/>
   <path class="fil2" d="M12341.69 6550.28c362.9,-339.44 630.27,-400.97 986.08,-241.65 -264.58,353.23 -623.22,444.46 -986.08,241.65z"/>
   <path class="fil2" d="M16547.49 10000.23c521.55,440.09 901.77,973.74 1090.72,1625.71 397.58,1372.09 67.77,2559.19 -938.11,3566.12 -41.41,41.45 -59.12,106.54 -65.9,171.66 1669.6,-1212.21 1785.24,-3982.93 -86.71,-5363.49z"/>
   <path class="fil2" d="M18003.63 13109.94c498.02,-259.22 807.26,-800.38 713.46,-1248.58 -507.61,154.52 -795.2,657.86 -713.46,1248.58z"/>
   <path class="fil2" d="M18623.54 10964.72c-446.94,156.53 -685.02,557.04 -648.41,1090.79 471.6,-219.32 757.42,-767.33 648.41,-1090.79z"/>
   <path class="fil2" d="M17746.59 11280.5c311.15,-421.12 346.99,-882.05 94.86,-1219.38 -348.12,385.87 -387.28,889.6 -94.86,1219.38z"/>
   <path class="fil2" d="M17322.12 11045.23c-307.37,-348.79 -711.13,-473.88 -1037.34,-330.76 186.3,376.91 643.46,526.87 1037.34,330.76z"/>
   <path class="fil2" d="M16033.45 8944.72c-56.52,452.3 108.79,720.94 559.36,927.56 62.76,-381.49 -179,-789.97 -559.36,-927.56z"/>
   <path class="fil2" d="M17124.17 9402.02c-315.07,334.79 -295.45,781.62 45.47,1036.4 214.28,-314.22 196.64,-716.64 -45.47,-1036.4z"/>
   <path class="fil2" d="M15817.1 10293.34c326.81,267.69 706.89,283.1 972.25,39.47 -218.83,-257.35 -623.92,-273.79 -972.25,-39.47z"/>
   <path class="fil2" d="M15073.1 9923.82c384.24,185.49 717.3,153.07 1020.97,-122.2 -265.92,-204.05 -699.07,-157.55 -1020.97,122.2z"/>
   <path class="fil2" d="M15397.28 9435.55c-361.71,-72.78 -646.08,9.56 -874.75,274.77 272.77,149.86 583.14,57.22 874.75,-274.77z"/>
   <path class="fil2" d="M13894.67 9607.45c429.89,95.43 674.68,6.6 864.16,-302.75 -339.02,-54.05 -626.29,16.69 -864.16,302.75z"/>
   <path class="fil2" d="M15231.85 8719.69c-42.55,322.61 105.93,559.93 458.25,732.37 18.03,-374.34 -140.01,-626.93 -458.25,-732.37z"/>
   <path class="fil2" d="M15149.75 9205.21c-202.11,-263.6 -371.62,-333.45 -623.75,-267.41 135.78,261.94 362.23,361.39 623.75,267.41z"/>
   <path class="fil1" d="M3438.02 6416.05c61.26,-110.41 134.69,-206.35 220.66,-286.68 39.22,-36 63.33,-62.1 71.9,-77.55 9.39,-16.93 19.84,-58.3 29.77,-123.06 3.91,-20.93 11.18,-40.97 21.39,-59.37 26.54,-47.84 79.41,-77.22 159.04,-88.87 127.85,-20.52 244.93,-0.8 351.66,58.41 72.87,40.44 120.81,91.09 145.29,152.81 24.48,61.7 20.35,122.95 -13.14,183.3 -26.95,48.58 -71.17,86.62 -133.04,114.86 -18.79,7.86 -78.14,21.13 -177.62,39.09 -165.55,29.45 -282.16,104.33 -349.55,225.78 -60.84,109.66 -69.69,219.3 -24.99,327.85 44.3,109.28 135.25,202.1 271.42,277.65 201.68,111.89 402.49,155.92 601.71,131.69 73.18,-10.43 140.12,-33.92 201.25,-71.24 60.73,-36.58 105.99,-81.73 135.39,-134.73 24.5,-44.16 29.8,-88.4 16.28,-133.43 -13.19,-43.9 -42.97,-78.71 -88.6,-104.03 -40.49,-22.46 -75.72,-26.61 -105.71,-12.45 -11.94,5.89 -20.85,11.54 -26.81,18.82 -5.24,7.69 -19.45,31.57 -41.9,72.05 -20.02,36.07 -48.54,59.71 -85.56,70.93 -36.29,11.63 -72.67,7.81 -108.01,-11.79 -69.92,-38.79 -94.25,-112.94 -72.56,-223.15 25.12,-119.87 74.26,-246.62 148.17,-379.84 79.63,-143.53 160.91,-255.34 244.25,-336.16 79.76,-76.08 157.33,-92.72 232.41,-51.07 30.18,16.74 50.95,41.75 61.19,75.35 10.98,34.01 9.12,68.59 -5.25,104.89 -11.92,31.9 -15.92,54.71 -11.98,68.45 3.94,13.73 20.38,34.4 49.67,63.16 114.68,110.79 187.69,244.67 219.82,400.15 20.66,106.76 20.24,222.04 -1.93,343.54 -22.17,121.5 -64.53,239.5 -127.42,352.85 -102.5,184.74 -239.52,331.08 -410.65,438.28 -175.79,110.39 -364.21,163.72 -567.13,159.91 -168.67,-3.09 -328.44,-46.49 -479.33,-130.21 -153.1,-84.93 -275.96,-207.01 -367.86,-365.8 -98.95,-170.41 -144.84,-356.63 -137.26,-559.38 4.96,-177.25 57.02,-354.36 155.03,-531.01z"/>
   <path class="fil1" d="M4524.72 4851.59l508.4 -545.62c102.72,-110.23 175.43,-193.2 217.55,-248.29 42.75,-54.51 79.41,-112.39 110,-173.62 9.46,-18.79 18.53,-32.22 26.56,-40.83 33.85,-36.34 83.97,-50.62 149.77,-42.22 108.28,13.44 207.68,62.35 298.82,147.28 46.19,43.03 72.72,86.17 81.42,129.93 8.11,44.37 -3.01,83.48 -34.57,117.35 -21.81,23.4 -43.95,37.29 -65.24,41.61 -21.28,4.33 -59.47,2.1 -112.81,-7.34 -76.69,-12.77 -145.43,-3.2 -205.63,29.31 -60.16,33.68 -141.03,104.43 -242.6,213.44 -75.74,81.28 -107.49,143.75 -95.18,188.57 6.78,23.59 22.56,48.64 47.32,75.17 24.76,26.51 90.7,89.1 198.46,189.52 42.5,39.59 75.24,56.3 98.91,51.89 23.67,-4.41 63.02,-36.77 118.68,-96.5 28.12,-30.18 42.05,-57.46 42.35,-82.49 -0.26,-24.41 -14.4,-53.68 -42.98,-87.22 -36.67,-43.37 -59.79,-74.12 -70.02,-94.01 -10.23,-19.89 -14.56,-41.17 -12.45,-65.66 0.84,-26.84 10.75,-49.81 29.12,-69.52 26.97,-28.94 64.04,-41.57 110.69,-36.07 34.09,4.15 81.9,25.7 143.38,63.42 62.1,38.31 120.89,83.87 177.54,136.67 111.46,103.86 187.16,206.6 226.46,307.65 21.01,55.24 13.18,103.16 -22.98,141.96 -22.38,24.02 -43.46,34.3 -65,31.48 -20.92,-2.24 -53.05,-18.37 -96.44,-49.6 -89.82,-64.13 -173.45,-54.63 -250.34,27.89 -29.84,32.02 -40.07,62.76 -30.65,93.4 9.41,30.63 40.63,71.23 95.43,122.3 33.25,30.98 78.66,68.68 135.59,112.53 56.37,44.46 96.06,72.25 117.89,83.39 26.1,13.96 56.95,10.49 92.5,-11.6 34.98,-21.49 85.19,-66.74 149.46,-135.71 98.7,-105.92 159.74,-198.6 181.96,-278 22.82,-78.82 14.3,-168.46 -25.58,-268.89 -22.32,-58.76 -32.78,-101.87 -32.02,-131.08 0.18,-28.6 12.92,-55.85 36.44,-81.1 28.12,-30.17 64.01,-42.75 107.04,-38.31 43.66,5 85.47,25.57 124.27,61.72 42.49,39.59 85.12,100.02 128.47,180.68 42.77,81.27 74.18,161.15 94.8,239.04 8.52,39.01 13.1,67.44 11.35,85.37 -1.75,17.92 -10.68,34.91 -26.18,51.54 -12.62,13.55 -32.82,31.53 -60.67,52.76 -50.51,36.93 -112.28,92.12 -184.71,166.14l-838.34 899.71c-33.86,36.33 -67.69,56.59 -102.07,61.38 -34.36,4.78 -65.71,-6.02 -94.66,-32.99 -20.32,-18.94 -31.71,-37.6 -32.9,-54.82 -1.78,-16.62 5.49,-46.65 19.45,-90.03 10.85,-30.15 13.48,-56.45 9.7,-79.54 -3.18,-22.52 -15.43,-48.89 -36.74,-79.11 -85.31,-122.05 -218.5,-268.03 -399.56,-436.73 -272.8,-254.2 -460.73,-398.25 -563.73,-430.94 -21.05,-5.8 -38.36,-6.98 -51.36,-4.14 -13.58,3.46 -37,15 -69.67,34.02 -49,29.13 -95.04,24.2 -136.91,-14.81 -22.79,-21.24 -36.18,-46.37 -41.41,-76.56 -5.81,-29.57 -0.88,-58.33 13.67,-85.05 19.66,-33.45 66.5,-89.9 139.95,-168.72z"/>
   <path class="fil1" d="M6235.15 3189.65l617.45 -418.25c124.74,-84.5 214.15,-149.12 267.52,-193.41 53.84,-43.58 102.51,-91.81 146,-144.65 13.43,-16.21 25.26,-27.27 35.01,-33.87 41.12,-27.85 93.16,-30.58 155.42,-7.69 102.54,37.29 188.5,107.17 258.37,210.31 35.4,52.27 51.63,100.24 50.32,144.84 -2,45.06 -21.58,80.7 -59.91,106.66 -26.48,17.94 -51.16,26.53 -72.88,25.99 -21.71,-0.54 -58.44,-11.24 -108.33,-32.36 -71.89,-29.58 -141.04,-35.61 -206.97,-17.37 -66.16,19.39 -160.8,70.28 -284.15,153.84 -91.99,62.31 -136.89,116.1 -134.91,162.55 1.34,24.5 11.13,52.44 29.33,83.83 18.21,31.38 68.5,107.11 151.11,229.07 32.57,48.09 60.76,71.69 84.82,72.68 24.05,0.99 69.63,-21.76 137.24,-67.55 34.14,-23.13 53.81,-46.61 59.7,-70.94 5.2,-23.85 -2.04,-55.55 -22.4,-94.62 -26.06,-50.47 -41.73,-85.61 -47.26,-107.27 -5.52,-21.67 -4.99,-43.39 2.54,-66.79 6.82,-25.97 21.6,-46.16 43.91,-61.27 32.75,-22.18 71.71,-26.2 115.95,-10.42 32.31,11.67 74.09,43.35 125.59,93.86 51.98,51.21 99.1,108.76 142.53,172.87 85.44,126.14 136.26,243.19 151.99,350.47 8.14,58.54 -10.2,103.5 -54.1,133.24 -27.18,18.41 -50.03,23.72 -70.39,16.16 -19.9,-6.85 -47.62,-29.76 -82.93,-69.89 -73.22,-82.58 -156.86,-92 -250.24,-28.74 -36.24,24.55 -53.08,52.22 -50.75,84.19 2.34,31.96 23.69,78.5 65.71,140.52 25.48,37.63 61.32,84.53 107.02,139.99 45.01,55.93 77.49,91.88 96.28,107.61 22.32,19.45 53.16,22.95 92.75,9.36 38.89,-13.13 97.95,-46.02 176,-98.89 119.87,-81.19 200.07,-157.89 239.46,-230.32 39.86,-71.73 51.58,-161 35.15,-267.81 -8.63,-62.26 -9.19,-106.62 -1.93,-134.92 6.57,-27.83 25.07,-51.55 53.64,-70.9 34.15,-23.13 71.94,-27.38 112.89,-13.44 41.44,14.63 77.61,44.01 107.35,87.92 32.57,48.08 60.62,116.52 84.85,204.82 23.53,88.77 36.3,173.65 39,254.18 -0.41,39.93 -2.3,68.66 -8,85.74 -5.72,17.08 -18.22,31.65 -37.04,44.4 -15.33,10.38 -39.04,23.4 -70.92,37.87 -57.48,24.71 -130.03,64.7 -217.16,120.67l-1018.16 689.68c-41.12,27.85 -78.61,40.04 -113.2,37.02 -34.56,-3.01 -62.71,-20.54 -84.9,-53.3 -15.57,-22.99 -22.5,-43.73 -19.82,-60.79 1.98,-16.59 15.78,-44.23 39.07,-83.4 17.31,-26.97 25.76,-52.01 27.23,-75.36 1.93,-22.67 -4.12,-51.11 -18.14,-85.32 -55.89,-138.03 -153.1,-310.07 -291.89,-514.96 -209.12,-308.73 -360.12,-491.11 -453.21,-545.98 -19.22,-10.37 -35.83,-15.38 -49.14,-15.52 -14.01,0.34 -39.41,6.36 -75.51,17.6 -54.26,17.45 -98.04,2.36 -130.13,-45.02 -17.47,-25.79 -24.91,-53.28 -23.26,-83.88 0.94,-30.12 12.17,-57.06 32.32,-79.85 26.64,-28.21 84.91,-72.77 174.11,-133.19z"/>
   <path class="fil1" d="M8573.22 1835.14l713.18 -274.82c76.05,-32.01 141.72,-69.95 197.6,-112.23 24.77,-17.65 46.81,-30.66 68.01,-38.83 73.06,-28.15 164.63,-1.19 275.51,80.56 110.88,81.75 188.42,179.97 232.31,293.86 30.26,78.54 28.01,145.26 -5.98,199.85 -25.54,41.42 -63.59,71.41 -113.85,90.78 -47.92,18.47 -93.91,20.85 -139.54,7.77 -45.63,-13.09 -97.93,-43.46 -155.31,-91.7 -51.33,-44.27 -89.12,-72.1 -112.28,-83.02 -23.63,-9.84 -48.16,-10.31 -72.52,-0.93 -33.77,13.01 -51.88,36.23 -55.43,69.17 -4.03,34.03 6.77,83.09 31.28,146.71l292.06 757.94c29.97,77.75 59.31,130.5 89.42,159.48 30.12,28.99 71.03,43.9 123.07,45.49 56.87,2.45 97.42,9.37 122.45,20.47 24.54,12.19 43.17,34.79 55.58,66.99 25.12,65.19 -0.4,130.05 -75.48,195.06 -75.85,65.32 -204.9,133.08 -387.12,203.3 -223.85,86.25 -397.32,132.35 -519.14,136.9 -102.92,4.48 -167.84,-28.24 -194.17,-96.57 -14.23,-36.91 -8.94,-72.32 15.39,-105.16 6.04,-7.74 34.01,-31.14 83.11,-69.91 30.94,-22.74 47.23,-50.67 49.69,-84.09 1.98,-32.33 -8.7,-90.46 -30.63,-173.12 -19.87,-72.63 -56.68,-189.24 -111.24,-349.53 -54.24,-159.51 -103.77,-297.38 -148.26,-412.84 -31.17,-80.91 -59.85,-136.6 -85.73,-166.32 -25.58,-28.93 -52.66,-38.34 -81.72,-27.14 -35.35,13.62 -60.23,52.07 -73.54,115.84 -25.06,115.19 -52.02,195.04 -79.01,239.72 -32.72,53.2 -70.05,87.43 -113.25,104.07 -48.7,18.77 -95.72,16.14 -141.35,-8.67 -46.13,-23.72 -79.69,-64.01 -101.79,-121.35 -21.49,-55.76 -32.52,-121.86 -33.42,-199.1 -0.59,-76.45 9.27,-151.5 29.59,-225.19 32.92,-118.22 83.7,-190.11 150.46,-215.83 18.06,-6.96 39.4,-12.48 65.08,-16.06 52.63,-8.56 95.1,-17.71 128.03,-25.89 32.15,-7.87 68.88,-20.23 108.94,-35.66z"/>
   <path class="fil1" d="M12117.14 1971.07l349.87 545.05c33.13,50.76 59.51,82.89 79.27,97.23 19.75,14.34 47.07,21.72 82.89,22.87 70.7,1.56 109.6,32.02 117.53,91.25 9.39,70.08 -25.61,125.72 -105.74,167.89 -80.12,42.15 -216.61,75.72 -407.65,101.31 -216.91,29.06 -378.32,41.34 -485.07,36.97 -49.5,-1.86 -90.23,-14.25 -121.34,-37.25 -31.82,-22.07 -50.25,-51.86 -55.28,-89.41 -3.91,-29.2 0.69,-51.9 13.58,-69.76 12.06,-17.75 37.69,-35.62 76.67,-55.28 42.21,-20.94 61.27,-49.82 56.35,-86.53 -8.61,-64.23 -52.02,-96.64 -131.17,-97.93 -84.88,0.33 -203.29,10.26 -354.3,30.49 -127.64,17.1 -202.55,34.78 -225.57,53.15 -14.62,11.3 -25.62,30.6 -33.11,57.08 -8.33,26.6 -10.93,51.58 -7.91,74.1 2.79,20.86 8.87,34.48 17.99,39.21 8.4,5.66 36.44,12.09 83.39,20.24 60.75,9.7 94.53,39.99 101.46,91.71 15.31,114.3 -113.08,189.25 -385.88,225.8 -156.01,20.9 -270.81,26.09 -346.19,14.95 -70.37,-11.8 -109.66,-51.54 -118.72,-119.12 -3.91,-29.2 0.47,-53.57 13.26,-72.26 12.05,-17.76 36.73,-36.35 73.32,-54.83 59.56,-30.91 102.14,-68.04 129.31,-112.45 27.28,-43.57 60.93,-134.7 102.74,-272.77l143.27 -471c53.28,-172.74 86.91,-302.08 101.93,-386.48 14.18,-84.28 16.92,-165.32 7.36,-243.01 -10.24,-82.71 -12.83,-140.11 -8.01,-173.88 4.93,-32.93 20.81,-66.48 48.39,-101.6 56.84,-76.4 136.64,-121.06 239.25,-134.81 96.78,-12.96 194.41,12.17 293.02,76.24 136.5,87.02 354.55,364.39 655.09,832.83zm-975.21 314.93l281.15 -37.67c51.73,-6.93 76.02,-22.07 72.89,-45.43 -4.13,-30.87 -50.4,-103.65 -138.8,-218.34 -40.03,-51.54 -70.2,-86.57 -90.28,-103.41 -20.09,-16.84 -38.85,-23.67 -58.04,-21.1 -34.2,4.58 -59.15,40.2 -73.06,107.45 -2.95,9.74 -11.72,45.73 -27.98,108.21 -27.79,103.09 -40,164.17 -37.43,183.36 3.24,24.19 27.34,32.85 71.55,26.93z"/>
   <path class="fil1" d="M13755.47 1119.88l629.07 724.88c59.38,68.51 103.71,104.37 132.9,108.39 50.02,6.9 82.4,-43.01 97.12,-149.74 16.67,-120.91 20.44,-203.66 12.36,-249.81 -8.08,-46.14 -34.45,-82.92 -77.2,-111.76 -35,-23.52 -58.2,-46.26 -70.33,-69.18 -12.98,-23.03 -16.91,-49.91 -12.43,-82.43 11.16,-80.89 73.32,-125 186.49,-132.32 46.29,-2.97 125.37,2.84 237.93,18.37 144.26,19.89 243.16,42.03 296.62,67.24 83.87,38.76 121.04,95.72 110.81,169.93 -8.63,62.54 -50.92,104.28 -127,126.08 -30.91,8.48 -51.58,16.68 -63.68,24.36 -12.23,8.51 -22.52,21.54 -32.67,39.68 -34.59,59.81 -65.32,177.93 -90.42,353.75l-64.51 467.78c-10.01,72.54 -22.74,171.04 -39.05,295.4 -22.39,168.55 -49.19,288.91 -80.27,360.24 -38.61,89 -92.58,129.14 -160.12,119.82 -29.18,-4.02 -54.23,-13.42 -74.18,-28.92 -19.96,-15.5 -51.79,-49.63 -94.77,-101.44l-747.08 -879.65c-51.72,-62.37 -97.24,-95.83 -136.42,-101.24 -58.37,-8.05 -98.71,68.81 -121.02,230.57 -18.4,133.42 -23.44,225.34 -15.21,276.61 7.39,51.15 33.3,91.25 76.05,120.09 59.83,40.55 85.89,85.77 78.87,136.64 -18.28,132.58 -170.9,179.5 -456.91,140.06 -129.24,-17.82 -227,-48.31 -293.16,-92.27 -66.99,-44.07 -96.29,-96.55 -87.67,-159.09 4.49,-32.51 14.49,-55.77 30.13,-70.61 15.52,-14 48.65,-32.38 99.14,-53.45 48.71,-20.48 82.78,-64.21 102.1,-130.37 32.98,-122.05 65.81,-298.51 97.77,-530.32 34.04,-246.81 44.72,-428.88 31.05,-545.47 -5.2,-42.35 -14.29,-75.05 -27.26,-98.07 -13.08,-22.2 -37.12,-45.06 -72.22,-67.75 -40.48,-26.82 -67.64,-51.8 -81.43,-74.95 -13.92,-22.32 -18.92,-47.65 -15.01,-76 12.76,-92.55 99.91,-139.16 260.84,-141.61 54.4,-0.14 149.08,9.52 283.33,28.03 75.88,10.47 130.94,24.01 164.36,40.51 33.29,17.34 71.3,49.78 113.08,98.02z"/>
   <path class="fil1" d="M16879.87 1829.18c101.01,39.84 200.19,88.9 297.24,147.98 79.48,48.54 132.84,92.2 159.75,131.77 26.94,39.57 32.14,81.44 14.84,125.29 -11.11,28.19 -26.81,47.33 -46.3,57.74 -19.49,10.42 -56.65,17.48 -110.24,22.58 -63.27,6.72 -105.38,26.31 -126.63,59.55 -22.35,33.71 -84.97,171.88 -188.5,416.06 -97.32,237.6 -155.88,379.18 -177.06,426.02 -21.19,46.83 -44.89,90.88 -71.41,132.9 -77.4,120.57 -171.41,202.93 -279.84,246.14 -89.08,35.44 -190.92,50.48 -305.83,45.87 -115.69,-4.9 -230.07,-29.2 -342.83,-73.67 -99.43,-39.21 -194.42,-92.05 -284.46,-157.42 -90.04,-65.36 -162.75,-135.66 -218.13,-210.88 -45.95,-62.46 -74.42,-132.5 -85.12,-210.91 -10.7,-78.42 -1.84,-153.64 26.87,-226.46 35.52,-90.05 93.35,-154.11 173.67,-190.3 79.54,-36.5 162.22,-37.36 247.57,-3.7 83.79,33.04 144.69,85.1 183.97,157.59 38.65,74.06 43.22,147.35 14.2,220.95 -7.41,18.79 -25.24,47.95 -53.81,88.26 -4.96,8 -9.76,17.87 -14.08,28.84 -11.43,28.97 -10.21,55.69 3.84,82.04 13.25,26.03 36.95,46.24 70.63,59.52 60.29,23.77 120.43,15.82 178.54,-23.69 58.1,-39.52 103.9,-102.89 138.8,-191.38l46.92 -123.55 127.96 -331.37c70.44,-203.85 111.58,-324.25 121.57,-361.03 9.98,-36.79 11.22,-69.77 3.73,-98.96 -6.21,-23.26 -14.1,-39.95 -22.12,-49.45 -8.02,-9.49 -33.12,-28.44 -74.69,-58.4 -19.29,-13.03 -33.14,-32.98 -39.67,-59.99 -6.86,-26.22 -6.04,-51.23 3.22,-74.72 19.15,-48.55 53.38,-80.3 103.17,-94.14 49.8,-13.83 121.23,-13.72 214.47,2.24 104.04,18.41 207.19,48.23 309.76,88.68z"/>
   <path class="fil1" d="M18675.75 4047.27l-105.27 639.07c-9.4,59.88 -11.32,101.41 -6.26,125.3 5.06,23.87 20.41,47.65 46.24,72.5 51.44,48.51 59.93,97.18 26.15,146.47 -39.97,58.33 -103.23,76.21 -190.97,53.84 -87.73,-22.36 -211.56,-88.84 -370.56,-197.8 -180.53,-123.7 -308.61,-222.69 -384.95,-297.44 -35.51,-34.54 -57.46,-71.01 -65.15,-108.93 -8.86,-37.7 -2.58,-72.17 18.83,-103.42 16.65,-24.3 35.27,-38.08 56.81,-42.7 20.84,-5.11 51.85,-1.21 93.95,10.3 45.37,12.72 78.87,4.04 99.8,-26.51 36.64,-53.46 26.11,-106.6 -31.81,-160.56 -63.24,-56.61 -157.81,-128.56 -283.5,-214.68 -106.23,-72.79 -173.71,-109.84 -203.1,-111.61 -18.42,-1.4 -39.52,5.56 -62.82,20.2 -24,14.18 -42.66,30.98 -55.5,49.73 -11.9,17.36 -16.51,31.54 -12.9,41.16 2.44,9.83 18.95,33.39 48.36,70.89 38.61,47.89 43.4,93.01 13.91,136.05 -65.19,95.13 -210.72,64.8 -437.77,-90.78 -129.85,-88.98 -218.57,-162.01 -267.08,-220.77 -44.35,-55.9 -46.91,-111.73 -8.37,-167.97 16.65,-24.3 36.23,-39.46 58.24,-44.78 20.85,-5.11 51.63,-2.39 91.17,8.4 64.93,16.93 121.42,17.89 171.33,3.1 49.45,-14.07 135.47,-59.2 259,-133.74l421.84 -253.78c155.27,-92.58 266.88,-166.1 334.55,-218.7 66.98,-53.09 123.29,-111.43 168.23,-175.53 47.8,-68.27 84.32,-112.63 110.52,-134.48 25.71,-21.15 59.98,-35.43 103.97,-43.03 93.39,-18.66 182.56,1.62 267.96,60.14 80.55,55.19 136.21,139.25 166.51,252.87 43.08,156.05 19.22,508.05 -71.36,1057.19zm-935.09 -419.32l234 160.34c43.05,29.5 71.23,34.53 84.56,15.08 17.6,-25.69 32,-110.72 43.17,-255.09 4.8,-65.09 5.86,-111.3 2.22,-137.26 -3.64,-25.96 -12.99,-43.6 -28.96,-54.54 -28.47,-19.51 -70.85,-9.77 -126.23,30.85 -8.7,5.26 -39.32,26.11 -93.24,61.61 -89.7,57.93 -139.67,95.12 -150.61,111.09 -13.8,20.14 -1.71,42.7 35.09,67.92z"/>
   <path class="fil1" d="M20101.11 4963.21l-495.61 444.61c-111.52,100.05 -175.14,174.09 -190.3,222.74 -16.86,58.1 9.31,125.08 77.32,200.9 73.64,82.08 150.26,130.94 228.7,146.51 77.87,14.96 164.04,-2.42 257.34,-52.2 56.55,-31.5 101.66,-27.87 135.94,10.35 34.29,38.22 44.91,84.1 32.38,139.44 -12.54,55.36 -46.35,107.17 -100.86,156.07 -88.97,79.82 -213.99,132.05 -375.07,156.69 -51.14,8.55 -89.99,10.62 -115.94,5.63 -25.97,-4.98 -49.03,-19.35 -69.26,-41.9l-185.27 -265.76 -676.75 -754.37c-44.41,-49.5 -70.24,-89.64 -76.32,-120.37 -10.13,-44.06 0.81,-81.02 34.02,-110.81 20.68,-18.55 40.21,-27.03 58.6,-25.43 17.83,0.97 52.97,12.41 104.31,33.08 55.96,23.3 107.13,24.88 152.9,5.3 37.88,-17.01 128.28,-90.2 270.5,-217.79 65.79,-59.02 159.34,-146.33 281.21,-261.31 116.3,-111.12 203.65,-194.01 263.87,-249.16 57.64,-51.71 93.18,-91.51 106.6,-119.39 12.25,-27.94 11.05,-60.8 -5.41,-98.05 -25.86,-61.6 -39.69,-103.48 -41.46,-125.63 -2.63,-39.49 7.93,-69.32 31.11,-90.11 52,-46.65 130.89,-39.39 236.59,22.96 90.12,52.58 190.85,140.89 302.7,265.57 125.34,139.72 211.69,251.1 259.11,332.95 60.39,106.4 61.46,185.73 3.19,238 -23.81,21.37 -46.42,31.46 -68.37,29.68 -22.58,-1.23 -63.48,-16.56 -124.5,-45.5 -36.69,-15.7 -73.11,-14.69 -108.74,4.83 -35.63,19.53 -103.54,73.66 -202.53,162.47z"/>
   <path class="fil1" d="M21682.79 5979.55c58.65,93.38 106.33,186.68 141.87,279.66 47.75,125.07 35.63,210.22 -36.35,255.44 -23.53,14.78 -44.93,20.26 -63.76,17.19 -19.28,-3.8 -53.85,-20.85 -104.87,-51.43 -42.97,-25.69 -99.98,-24.66 -171.03,3.07 -71.76,28.17 -200.07,100.83 -384.68,216.79 -312.91,196.56 -501.15,325.73 -566.14,388.42 -19.93,20.48 -33.09,40.67 -37.6,60.4 -5.22,20.18 -5.77,49.36 -2.39,87.98 9.08,69.84 -9.54,119.32 -55.87,148.42 -65.58,41.19 -141.83,19.5 -228.74,-65.07 -94.43,-91.77 -190.53,-216.28 -288.59,-372.38 -167.45,-266.57 -200.57,-431.65 -99.36,-495.23 37.07,-23.29 87.85,-18.4 152.61,13.48 50.02,24.25 98.29,26.73 145.27,8.15 103.22,-42.98 306.3,-159.6 609.22,-349.89 209.56,-131.63 336.84,-226.49 382.58,-285.04 26.33,-32.45 38.8,-79.05 38.58,-139.55 1.05,-47.38 5.7,-81.11 13.5,-101.92 7.81,-20.81 22.76,-38.15 45.57,-52.48 34.92,-21.93 74.18,-22.74 115.89,-2.22 41.72,20.51 97.86,68.75 168.43,144.69 85.15,89.66 160.04,186.75 225.86,291.52z"/>
   <path class="fil1" d="M5186.1 16078.39c-33.34,-57.54 -68.58,-84.79 -105.73,-81.74 -27.76,2.47 -75.49,17.48 -143.91,45.45 -68.43,27.97 -129.22,57.36 -180.94,87.32 -31.31,18.15 -46.52,40.59 -46.36,67.74 -0.25,26.4 15.86,67.65 47.93,123 21.1,36.42 43.27,59.56 67.66,69.76 23.24,9.88 52.99,9.18 88.1,-2.42 102.01,-33.8 170.68,-21.07 204.86,37.93 59.51,102.68 -33.31,224.56 -277.28,365.93 -155.13,89.89 -281.82,133.15 -379.66,130.5 -60.05,-1.2 -103.72,-24.53 -130.73,-71.14 -28.7,-49.53 -12.38,-96.93 49.66,-142.61 40.45,-29.27 67.36,-51.67 81.77,-68.77 13.67,-16.69 23.67,-38.05 28.84,-64.39 10.18,-42.86 0.08,-90.52 -30.3,-142.95 -21.95,-37.87 -43.27,-59.57 -63.98,-65.07 -21.86,-5.83 -50.72,3.12 -87.75,26.51 -6.55,3.8 -45.88,26.59 -116.94,66.79 -144.94,83.99 -224.2,150.35 -238.94,198.77 -6.89,16.64 -9,31.48 -6.31,44.52 2.26,12.3 12.48,43.35 31.66,91.58 9.02,23.96 8.65,48.49 -1.43,74.77 -10.8,26.68 -28.42,46.62 -53.91,61.39 -64.1,37.14 -127.55,23.32 -189.23,-41.14 -88.36,-93.74 -190.1,-239.1 -304.04,-435.73 -100.01,-172.61 -158.6,-297.23 -176.5,-373.43 -7.84,-35.36 -4.59,-68.36 8.9,-100.5 13.48,-32.14 34.94,-57.22 64.07,-74.1 37.15,-21.52 73.88,-25.29 112.07,-11.42 8.89,3.6 32.9,19.84 70.98,50.31 45.64,36.79 104.65,39.57 177.13,10.21 111.55,-44.21 350.29,-172.82 716.61,-385.08 158.05,-91.58 257.78,-156.18 298.78,-194.54 40.29,-37.92 57.45,-83.87 51.6,-135.92 -5.84,-52.07 -5.13,-89.45 1.11,-110.58 6.24,-21.12 22.11,-39.08 47.6,-53.85 37.14,-21.52 78.28,-21.03 123.72,0.3 44.71,21.77 82.83,59.02 113.64,112.19 19.41,33.5 45.5,83.55 77.97,151.33 67.98,142.52 156.99,307.88 267.14,497.96 175.97,303.7 302.57,503.71 380.51,599.6 10.2,12.58 17.26,23.08 21.48,30.37 17.3,29.85 16.59,67.24 -1.3,113.6 -51.33,127.99 -133.64,224.33 -247.98,290.58 -51.72,29.97 -99.25,41.94 -144.49,36.06 -45.25,-5.89 -79.11,-29.07 -101.9,-68.4 -17.3,-29.86 -24.13,-55.08 -21.35,-77.13 2.8,-22.04 21.64,-83.55 56.42,-186.39 21.75,-63.19 23.99,-124.81 7.02,-185.98 -17.7,-60.77 -65.93,-164.15 -146.27,-311.19z"/>
   <path class="fil1" d="M6139.2 18368.41l-248.74 598.01c-22.85,56.14 -34.24,96.12 -34.78,120.54 -0.53,24.39 8.96,51.06 28.42,81.15 38.97,59 36.1,108.32 -8.08,148.58 -52.25,47.63 -117.92,50.55 -198.21,8.7 -80.28,-41.85 -185.61,-134.91 -315.45,-277.37 -147.43,-161.74 -249.45,-287.42 -306.65,-377.64 -26.66,-41.75 -39.68,-82.28 -38.49,-120.95 0.01,-38.74 14,-70.86 42,-96.37 21.77,-19.85 43.05,-28.99 65.08,-28.57 21.46,-0.19 50.74,10.69 89.1,31.54 41.25,22.76 75.85,21.98 103.22,-2.97 47.9,-43.66 49.81,-97.79 5.78,-163.58 -48.61,-69.59 -124.21,-161.27 -226.84,-273.86 -86.75,-95.18 -143.95,-146.69 -172.16,-155.14 -17.62,-5.59 -39.75,-3.63 -65.79,5.29 -26.6,8.3 -48.6,20.4 -65.4,35.7 -15.55,14.18 -23.29,26.93 -21.98,37.11 0.13,10.14 10.81,36.85 30.86,80.08 26.62,55.46 20.96,100.48 -17.61,135.64 -85.22,77.68 -219.95,14.84 -405.37,-188.59 -106.03,-116.33 -175.68,-207.73 -209.45,-276.03 -30.38,-64.56 -20.09,-119.5 30.3,-165.43 21.77,-19.84 44.29,-30.12 66.94,-30.26 21.46,-0.2 50.8,9.49 86.83,29.04 59.33,31.35 114.1,45.21 166.07,42.24 51.36,-2.38 145.42,-26.62 282.73,-70.91l468.73 -150.5c172.34,-54.57 297.81,-100.6 375.72,-136.31 77.36,-36.34 145.53,-80.26 203.95,-132.37 62.15,-55.51 107.85,-90.33 138.35,-105.61 29.88,-14.7 66.51,-20.75 111.06,-18.09 95.19,3.21 177.34,43.36 247.09,119.88 65.77,72.16 100.72,166.73 104.22,284.26 6.2,161.76 -97.59,498.96 -311.45,1012.79zm-814.28 -622.21l191.09 209.64c35.16,38.57 61.44,49.92 78.86,34.04 23.01,-20.98 56.48,-100.46 100.41,-238.45 19.56,-62.25 31.17,-106.99 33.57,-133.1 2.4,-26.1 -2.66,-45.4 -15.71,-59.71 -23.24,-25.51 -66.72,-25.74 -129.94,1.13 -9.67,3.12 -44.25,16.43 -104.86,38.64 -100.57,35.86 -157.73,60.62 -172.03,73.66 -18.04,16.44 -11.44,41.18 18.61,74.15z"/>
   <path class="fil1" d="M7198.92 19397.58c-30.31,-19.78 -56.03,-23.5 -76.44,-10.69 -20.88,13.52 -53.17,53.75 -97.78,122.14 -67.15,102.92 -113.25,187.42 -137.82,252.8 -6.35,18.97 -8.28,35.8 -6.5,50.02 1.78,14.23 10.38,34.92 25.37,62.79 31.16,58.53 32.13,109.41 3.61,153.12 -34.95,53.57 -93.62,69.56 -175.56,47.26 -81.94,-22.31 -203.49,-85.53 -364.22,-190.4 -299.6,-195.48 -412.96,-349.85 -338.91,-463.35 12.42,-19.03 26.76,-31.78 43.76,-37.78 16.98,-6 47.3,-9.34 92.81,-9.79 51.13,0.19 93.5,-12.37 126.88,-35.81 32.69,-23.9 78.19,-73.62 134.17,-148.65 40.78,-54.8 177.67,-259.96 409.02,-614.55 73.13,-112.08 117.62,-192.6 132.57,-240.14 14.93,-47.55 10.28,-92.79 -14.66,-136.2 -24.92,-40.38 -38.05,-71.07 -40.84,-92.98 -2.78,-21.92 2.82,-44.39 18,-67.66 19.32,-29.6 47.62,-48.32 85.6,-55.7 37.52,-6.68 80.28,-2.9 128.77,13.66 40.53,13.38 91.22,40.42 151.84,79.98 26.8,17.48 91,65.4 191.93,143.31 19.53,14.75 50.79,36.15 94.5,64.67 72.6,47.37 173.11,105.91 301.5,175.62 80.52,44.49 135.93,76.63 166.95,96.86 172.71,112.7 288.68,247.66 347.44,405.59 53,142.12 35.69,279.57 -51.24,412.81 -48.75,74.72 -110.54,130.9 -185.8,169.23 -75.97,37.87 -154.5,51.96 -237.02,41.33 -34.83,-3.62 -57.63,3.6 -69.13,21.23 -15.18,23.26 -7.86,55.18 22.66,96.2 64.82,85.51 96.5,172.5 96.21,260.76 -1.47,88.5 -35.36,202.06 -102.61,342.11 -27.2,58.63 -39.16,100.07 -35.89,124.32 2.81,24.95 25.58,60.92 65.97,108.37 12.3,15.05 18.79,34.37 19.24,56.78 0,23.11 -6.56,43.95 -18.98,62.99 -16.1,24.67 -42.53,43.61 -78.12,56.57 -36.76,13.21 -75.01,16.38 -114.99,11.41 -89.07,-12.89 -192.24,-58.09 -310.68,-135.36 -157.19,-102.57 -242.85,-217.76 -256.96,-345.56 -6.63,-57.6 -2.37,-121.14 13.74,-192.04 15.41,-71.36 47.53,-176.04 96.81,-314.73 31.1,-89.26 43.25,-158.72 35.05,-209.3 -8.2,-50.58 -38.05,-94.18 -90.25,-131.24zm334.05 -664.49l-197.83 273.95c-1.38,2.12 -4.14,6.35 -7.36,11.28 -18.86,28.9 -27.51,51.4 -25.03,66.08 2.02,15.4 15.72,31.37 41.8,48.38 71.2,46.46 134.62,61.7 191.42,45.5 56.35,-15.5 110.74,-63.43 163.63,-144.5 101.65,-155.79 97.01,-270.38 -13.67,-342.59 -31.71,-20.69 -58.17,-27.9 -80.52,-21.38 -23.05,6.07 -46.66,26.84 -72.44,63.28z"/>
   <path class="fil1" d="M9608.27 20800.65l-285.28 317.11c-49.1,53.08 -85.83,87.17 -109.67,103.33 -24.62,15.9 -47.48,20.87 -69.09,13.85 -20.01,-6.5 -35.57,-21.28 -45.33,-43.03 -6.76,-14.59 -16.72,-62.96 -30.13,-144.31 -13.4,-81.35 -23.55,-153.67 -29.89,-215.91l-48.89 -468.1c-6.37,-64.9 -23.42,-102.3 -51.44,-111.4 -29.63,-9.62 -53.44,9.2 -71.7,57.25 -41.76,106.8 -77.45,205.83 -107.35,297.9 -30.94,95.27 -47.19,161.68 -49.56,198.96 -0.09,22.09 3.77,40.17 11.32,52.35 7.55,12.18 30.91,38.35 70.34,77.71 25.49,25.09 31.86,57.25 19.12,96.48 -33.27,102.47 -182,110.82 -446.19,25.03 -221.76,-72.01 -316.93,-157.79 -284.43,-257.85 8.58,-26.42 20.16,-43.02 36.07,-51.13 14.84,-7.57 49.93,-14.76 104.7,-22.64 34.84,-3.73 61.9,-16.19 80.1,-36.82 17.94,-19.84 41.83,-63.41 71.4,-129.92 32.72,-70.8 79.97,-189.09 141.77,-354.87 61.55,-164.97 111.53,-308.04 150.27,-427.32 48.61,-149.71 70.42,-255.03 64.36,-315.4 -2.03,-21.01 -6.95,-38.54 -14.5,-50.73 -7.55,-12.18 -23.67,-30.69 -48.34,-55.52 -54.72,-52.28 -74.54,-102.97 -58.42,-152.6 10.66,-32.83 32.28,-58.55 65.68,-76.91 32.6,-18.62 70.86,-27.44 115.07,-24.58 44.72,1.24 101.74,8.25 172.66,21.54 70.1,13.03 128.24,27.49 175.47,42.83 117.69,38.22 197.83,74.86 240.42,109.93 20.36,16.35 35.41,35.39 44.08,55.02 8.41,20.43 18.04,58.96 27.79,116.11l115.84 621.7c12.5,67.79 22.68,110.02 30.53,126.74 7.84,16.7 21.78,28.31 43.4,35.33 18.41,5.98 36.76,3.97 55.59,-4.96 18.03,-9.19 43.16,-29.35 75.39,-60.48l316.96 -316.55c39.88,-41.04 66.02,-67.07 78.17,-79.94 74.72,-77.51 139.31,-123.79 193.23,-139.91 68.78,-21.04 176.95,-8.03 325.05,40.06 260.18,84.48 371.45,186.1 332.98,304.58 -8.58,26.43 -20.4,46.48 -36.02,59.11 -15.86,13.43 -42.12,26.15 -80.88,39.23 -52.82,18.24 -95.12,55.83 -125.29,113.3 -62.69,119.47 -123.27,270.6 -182.54,453.13 -76.17,234.57 -131.51,443.16 -167.34,627.1 -8.18,44.25 -8.99,76.74 -1.92,95.85 6.01,19.64 27.83,53.28 64.93,99.84 25.8,32.28 32.99,67.35 21.03,104.18 -20.8,64.05 -78.04,95.9 -172.28,94.5 -48.98,0.92 -98.53,-4.55 -148.92,-15.6 -50.14,-11.86 -125.37,-33.64 -227.04,-66.65 -155.31,-50.43 -267.76,-99.33 -336.8,-145.65 -76,-52.11 -104.65,-108.32 -85.15,-168.36 7.02,-21.62 18.6,-38.21 34.49,-48.98 14.83,-10.23 52.23,-27.3 110.08,-50.11 30.25,-11.41 59.29,-43.57 86.03,-95.96 26.75,-52.38 61.16,-144.74 104.06,-276.83 23.91,-73.66 36.31,-122.74 36.64,-148.3 0.34,-25.55 -10.43,-41.43 -32.05,-48.45 -26.43,-8.58 -56.96,0.97 -91.61,28.65 -35.72,28.23 -94.62,86.98 -176.97,177.07z"/>
   <path class="fil1" d="M12580.58 20119.33c-66.5,0.91 -107.5,18.3 -123.04,52.19 -11.43,25.4 -21.71,74.37 -30.8,147.73 -9.11,73.36 -13.24,140.76 -12.42,200.52 0.49,36.2 12.61,60.44 36.37,73.59 22.9,13.15 66.76,19.29 130.72,18.41 42.09,-0.57 73.12,-8.58 93.95,-24.85 19.99,-15.43 33.94,-41.71 41.02,-78.01 20.45,-105.5 65.17,-159.15 133.34,-160.08 118.67,-1.62 179.52,138.97 183.37,420.91 2.45,179.27 -21.84,310.93 -72.03,394.95 -30.45,51.77 -72.17,78.44 -126.03,79.17 -57.24,0.79 -90.58,-36.64 -100.05,-113.12 -5.73,-49.58 -12.09,-84.01 -19.95,-104.95 -7.85,-20.09 -21.59,-39.26 -42.03,-56.67 -32.39,-29.86 -78.89,-44.37 -139.48,-43.54 -43.77,0.6 -73.12,8.57 -88.06,23.93 -15.78,16.21 -22.11,45.76 -19.83,89.5 0.1,7.57 0.72,53.03 1,134.67 2.29,167.5 21.36,269.09 56.37,305.65 11.14,14.16 23.04,23.26 35.73,27.29 11.84,4.05 43.92,10.34 95.36,17.22 25.31,3.86 46.52,16.2 64.5,37.84 17.98,22.48 26.74,47.61 27.14,77.07 1.02,74.07 -42.09,122.64 -128.5,144.87 -124.99,31.17 -301.54,48.74 -528.78,51.84 -199.47,2.73 -336.82,-7.18 -412.03,-28.87 -34.67,-10.47 -61.86,-29.46 -83.28,-56.95 -21.43,-27.49 -32.79,-58.48 -33.25,-92.15 -0.59,-42.92 14.1,-76.8 44.89,-103.31 7.49,-5.99 33.4,-18.98 78.62,-37.28 54.42,-21.78 85.72,-71.88 95.6,-149.46 16.05,-118.91 20.76,-390.04 14.97,-813.38 -2.49,-182.64 -10.01,-301.23 -23.38,-355.76 -13.36,-53.69 -45.02,-91.15 -93.28,-111.53 -48.26,-20.39 -80.51,-39.31 -95.88,-55.09 -15.37,-15.78 -23.26,-38.41 -23.66,-67.86 -0.59,-42.93 19.98,-78.56 60.82,-107.75 40.87,-28.33 92.01,-43.34 153.45,-44.18 38.72,-0.53 95.14,1.22 170.13,6.09 157.56,10.47 345.32,13.8 564.99,10.79 350.97,-4.8 587.35,-17.29 709.12,-38.32 15.96,-2.74 28.57,-3.75 36.99,-3.86 34.5,-0.48 66.75,18.45 98.42,56.73 86.49,107.41 130.21,226.35 132.02,358.48 0.81,59.76 -12.01,107.08 -39.28,143.65 -27.29,36.57 -64.08,54.76 -109.53,55.38 -34.5,0.47 -59.84,-5.92 -77.71,-19.15 -17.85,-13.22 -62.26,-59.76 -134.92,-140.42 -44.46,-49.9 -97.09,-82.01 -158.74,-97.16 -61.65,-14.31 -175.41,-22.85 -342.95,-24.77z"/>
   <path class="fil1" d="M14392.72 20738.35c-35.16,8.6 -55.45,24.81 -60.07,48.47 -4.42,24.47 2.85,75.55 22.23,154.87 29.17,119.37 59.31,210.79 90.21,273.43 9.5,17.61 20.46,30.52 32.05,38.95 11.6,8.43 32.58,16.31 63.16,24.43 64.01,17.29 101.8,51.37 114.19,102.07 15.18,62.15 -13.28,115.89 -85.58,160.42 -72.31,44.53 -201.57,89.98 -388,135.53 -347.51,84.91 -537.66,62.05 -569.82,-69.6 -5.4,-22.07 -4.89,-41.26 2.35,-57.76 7.23,-16.49 25.54,-40.9 56.33,-74.41 35.11,-37.18 54.92,-76.68 60.65,-117.06 4.91,-40.2 -0.25,-107.39 -16.7,-199.55 -12.1,-67.23 -68.18,-307.41 -168.67,-718.7 -31.77,-130 -60.09,-217.53 -84.56,-260.94 -24.47,-43.41 -60.66,-70.96 -109.39,-82.45 -46.5,-9.44 -77.87,-20.84 -95.77,-33.79 -17.9,-12.96 -30.46,-32.42 -37.05,-59.4 -8.39,-34.34 -2.7,-67.79 17.9,-100.55 20.78,-31.94 52.78,-60.55 98.02,-84.61 37.48,-20.42 91.87,-38.91 162.2,-56.09 31.07,-7.59 109.95,-21.67 235.81,-42.02 24.11,-4.17 61.11,-12.34 111.8,-24.73 84.22,-20.57 195.66,-53.87 334.32,-99.88 87.53,-28.32 148.88,-46.77 184.85,-55.56 200.33,-48.95 378.1,-41.26 533.52,23.87 139.94,58.52 228.39,165.15 266.15,319.69 21.18,86.67 19.91,170.17 -3.59,251.29 -24.32,81.33 -67.75,148.26 -131.93,201.2 -26.46,22.94 -36.79,44.51 -31.79,64.96 6.59,26.98 34.88,43.46 85.69,49.25 106.7,11.18 191.85,47.56 256.03,108.14 63.58,61.58 123.25,163.97 179.44,308.81 24.18,59.95 46.24,97.01 66.17,111.2 20.12,15.02 61.93,23 124.18,25.98 19.39,1.33 37.92,9.8 54.59,24.79 16.86,15.81 27.58,34.85 32.97,56.93 6.99,28.62 2.73,60.85 -12.15,95.68 -15.5,35.85 -39.34,65.93 -70.31,91.7 -70.32,56.18 -173.85,100.54 -311.22,134.1 -182.35,44.56 -324.96,28.27 -427.85,-48.83 -46.56,-34.54 -90.01,-81.11 -130.72,-141.35 -41.53,-60.04 -95.94,-155.06 -163.43,-285.87 -43.85,-83.73 -86.22,-140.1 -128.74,-168.7 -42.51,-28.61 -94.73,-36.64 -157.47,-23.91zm-256.37 -698.14l64.59 331.68c0.6,2.46 1.8,7.37 3.19,13.09 8.2,33.52 18.7,55.22 31.1,63.45 12.61,9.05 33.63,9.98 63.88,2.59 82.59,-20.18 137.08,-56.03 164.11,-108.55 27.22,-51.71 29.45,-124.17 6.47,-218.21 -44.15,-180.7 -130.93,-255.68 -259.3,-224.31 -36.79,8.99 -60.15,23.36 -70.67,44.13 -11.34,20.97 -12.32,52.4 -3.37,96.13z"/>
   <path class="fil1" d="M15423.92 19240.83l663.33 -340.83c134.01,-68.86 230.55,-122.25 288.86,-159.78 58.71,-36.79 112.82,-78.79 162.38,-126.02 15.27,-14.47 28.34,-24.03 38.82,-29.42 44.17,-22.7 96.17,-19.12 155.22,11.1 97.29,49.37 174.21,129.09 231.14,239.89 28.85,56.15 39.19,105.73 32.52,149.85 -7.41,44.5 -31.14,77.52 -72.32,98.67 -28.45,14.62 -53.99,20.17 -75.47,17.02 -21.5,-3.15 -56.68,-18.2 -103.65,-45.16 -67.81,-38.03 -135.73,-52.34 -203.37,-42.19 -68.02,11.29 -168.1,50.41 -300.62,118.51 -98.82,50.77 -149.86,98.77 -153.49,145.11 -1.62,24.48 4.72,53.41 19.01,86.75 14.3,33.35 55.09,114.59 122.41,245.6 26.55,51.66 51.69,78.5 75.45,82.37 23.76,3.88 71.76,-13.21 144.38,-50.52 36.69,-18.85 59.04,-39.81 67.82,-63.24 8.02,-23.05 4.66,-55.39 -10.85,-96.63 -19.79,-53.24 -31.11,-90 -33.99,-112.19 -2.88,-22.17 0.27,-43.67 10.57,-65.99 9.89,-24.95 27.01,-43.21 50.96,-55.52 35.2,-18.09 74.35,-17.39 116.37,3.62 30.66,15.46 68.33,51.94 113.37,108.29 45.43,57.1 85.27,119.91 120.66,188.79 69.63,135.51 105.98,257.82 108.68,366.21 1.02,59.1 -22.6,101.52 -69.77,125.76 -29.2,15 -52.51,17.51 -71.82,7.56 -18.92,-9.2 -43.67,-35.28 -73.9,-79.37 -62.74,-90.78 -144.65,-110.22 -244.97,-58.67 -38.93,20 -58.98,45.45 -60.5,77.46 -1.53,32.02 14.06,80.79 48.3,147.42 20.77,40.43 50.7,91.3 89.38,151.85 37.94,60.95 65.86,100.55 82.62,118.44 19.82,21.98 50.01,29.19 90.95,20.45 40.19,-8.35 102.78,-33.89 186.63,-76.97 128.77,-66.17 217.63,-132.65 265.46,-199.8 48.21,-66.41 70.58,-153.62 67.14,-261.63 -1.07,-62.84 3.71,-106.95 14.34,-134.17 9.86,-26.83 31.09,-48.15 61.78,-63.92 36.68,-18.85 74.71,-18.51 113.7,0.25 39.36,19.52 71.73,53.04 95.96,100.21 26.55,51.66 46.16,122.97 59.58,213.55 12.66,90.97 15.11,176.77 8.09,257.03 -5.22,39.59 -10.54,67.88 -18.27,84.15 -7.73,16.27 -21.9,29.23 -42.11,39.62 -16.47,8.46 -41.58,18.53 -74.97,29.05 -60.03,17.6 -136.87,48.57 -230.12,93.64l-1093.8 562.02c-44.17,22.7 -82.87,30.28 -116.83,23.12 -33.95,-7.15 -59.78,-27.95 -77.87,-63.14 -12.69,-24.7 -17.07,-46.11 -12.35,-62.73 3.96,-16.24 20.99,-42.02 48.83,-78.09 20.43,-24.69 31.84,-48.54 36.1,-71.54 4.65,-22.27 2.07,-51.23 -7.73,-86.88 -38.85,-143.76 -114.64,-326.25 -227.74,-546.36 -170.42,-331.66 -298.34,-530.91 -384.14,-596.59 -17.83,-12.61 -33.72,-19.59 -46.92,-21.33 -13.94,-1.35 -39.89,1.57 -77.07,8.38 -55.97,10.78 -97.61,-9.47 -123.77,-60.38 -14.23,-27.7 -18.31,-55.89 -12.99,-86.07 4.56,-29.78 18.96,-55.16 41.71,-75.36 29.84,-24.8 93.05,-62.01 188.88,-111.25z"/>
   <path class="fil1" d="M17399.85 17980.87c77.36,-63.64 193.62,-127.67 349.32,-191.46 18.7,-7.74 33.19,-15.31 42.29,-22.79 7.15,-5.89 24.56,-31.1 50.38,-75.23 7.96,-14.18 18.16,-26.94 31.82,-38.17 50.05,-41.17 135.97,-45.37 257.11,-12.06 120.5,33.85 210.48,86.26 269.3,157.76 34.23,41.61 50.75,86.86 48.93,136.33 -1.29,50.1 -20.08,89.53 -55.82,118.94 -29.26,24.07 -58.11,38 -87.13,41.16 -28.48,3.81 -98.95,2.93 -210.67,-4.35 -158.69,-10.06 -281.31,21.07 -367.77,92.19 -41.6,34.23 -66.73,71.25 -74.86,111.72 -8.77,41 0.8,77.82 28.08,110.97 53.47,65 150.78,66.7 291.28,5.61 192.14,-81.77 318.21,-129.9 379.4,-144.28 266.4,-64.37 473.07,-6.59 621.2,173.47 131.01,159.25 172.96,342.73 125.84,550.44 -47.58,212.44 -178.89,406.57 -393.4,583.04 -95.55,78.61 -205.93,149.8 -330.6,214.21 -124.67,64.42 -223.29,100.87 -295.23,108.82 -55.54,5.36 -130.82,-19.9 -225.73,-76.98 -94.38,-56.42 -172.85,-122.66 -235.42,-198.71 -30.48,-37.06 -45.79,-70.24 -46.35,-101.39 -0.93,-39.55 12.85,-70.5 41.45,-94.04 27.95,-22.99 67.01,-31.16 117.07,-23.29 29.63,2.87 110,25.05 241.11,66.51 62.71,19.26 134.6,17.88 217.52,-4.55 82.79,-21.25 155.78,-58.39 220.13,-111.34 55.25,-45.45 91.55,-92.75 108.88,-141.9 17.88,-48.49 12.86,-89.05 -13.34,-120.89 -24.6,-29.91 -59.65,-44.67 -103.95,-44.2 -44.29,0.47 -105.07,16.69 -181.03,47.57 -133.88,54.54 -240.8,90.19 -319.7,108.23 -78.89,18.03 -159.77,25.71 -243.82,22.91 -203.75,-7.85 -360.23,-77.5 -469.32,-210.1 -54.01,-65.65 -91.35,-142.84 -112.14,-230.38 -20.78,-87.53 -22.26,-176.78 -3.8,-268.27 38.83,-208.52 148.27,-386.83 328.97,-535.5z"/>
   <path class="fil1" d="M18395.24 17050.34c183.13,-239.29 324.16,-321.09 423.1,-245.38 26.74,20.46 44.19,43.35 51.68,68.18 7,25.49 8.48,63.72 2.6,114.33 -4.97,43.9 4.78,81.03 28.72,112.07 23.94,31.05 81.02,81.09 172.6,151.18 54.15,41.43 94.57,56.47 121.95,45.62 16.72,-5.22 35.21,-19.7 54.46,-42.06 19.9,-21.87 62.51,-76.17 128.5,-162.4 60.88,-79.54 94.21,-131.41 100.36,-157.44 6.14,-26.03 -7.41,-51.25 -41.5,-77.34 -101.61,-77.76 -176.05,-127.3 -222.8,-149.3 -46.6,-20.83 -87.82,-23.75 -122.83,-7.09 -44.97,18.59 -77.89,28.37 -100.11,28.32 -22.07,1.14 -44.21,-7.33 -66.26,-24.21 -31.42,-24.04 -50.29,-57.56 -57.94,-101.57 -8.17,-43.35 -1.51,-88.07 18.96,-132.82 41.49,-94.37 108.87,-201.8 201.46,-322.8 107.94,-141.03 200.44,-235.6 277.51,-283.66 77.21,-46.9 142.9,-49.63 197.05,-8.19 46.11,35.29 62.46,85.95 48.87,150.8 -8.98,40.83 -11.12,69.93 -5.07,88.34 5.54,19.08 23.98,44.85 54.65,76.8 16.82,18.18 99.16,86.49 246.65,206.77 147.49,120.29 265.76,215.05 354.66,283.08 155.75,119.19 259.95,189.39 310.76,210.25 27.33,11.38 48.33,15.8 61.31,14.07 13.65,-1.21 47.95,-14.18 101.88,-37.56 38.71,-15.96 74.7,-11.73 107.45,13.33 58.15,44.5 74.33,112 47.2,201.47 -27.13,89.47 -99.7,212 -218.89,367.75 -104.87,137.03 -195.48,227.73 -271.84,272.11 -70.26,40.56 -130.21,41.33 -181.67,1.94 -44.12,-33.76 -60.82,-82.58 -50.76,-146.96 4.85,-31.26 4.57,-55.85 -1.99,-73.59 -5.89,-17.23 -22.48,-42.64 -49.6,-75.06 -54.1,-63.66 -127.86,-130.71 -221.44,-202.32 -48.8,-37.35 -84.51,-53.02 -106.61,-47.67 -22.11,5.33 -56.1,38.68 -101.63,98.17 -104.87,137.03 -164.52,230.22 -178.31,280.09 -5.75,19.98 5.13,43.15 32.15,70.19 33.18,32.81 77.1,69.59 130.58,110.52 87.56,67.01 160.28,103.58 217.3,108.01 18.68,0.52 48.89,-7.1 92.33,-23.69 43.78,-18.43 86.13,-11.45 128.24,20.77 54.14,41.44 66.27,110.08 37.57,205.76 -28.05,96.19 -95.34,213.22 -201.23,351.59 -96.68,126.33 -188.16,219.56 -275.1,279.14 -37.97,26.07 -75.14,40.02 -111.37,43.03 -35.55,3.53 -66.62,-4.34 -92.03,-23.79 -24.73,-18.92 -39.5,-39.77 -43.83,-63.22 -4.82,-22.77 -1.74,-62.81 7.91,-121.14 5.68,-29.56 3.41,-55.68 -6.65,-77.16 -10.06,-21.49 -33.69,-50.16 -69.55,-85.02 -81.54,-80.42 -193.92,-175.96 -338.97,-286.97 -26.74,-20.46 -59.33,-44.35 -96.61,-71.82 -187.05,-137.84 -293.02,-216.81 -319.09,-236.76 -65.66,-51.32 -113.2,-79.21 -143.8,-83.56 -29.93,-3.82 -77.37,9.69 -141.14,40.38 -42.13,21.82 -78.98,20.11 -111.06,-4.44 -77.54,-59.34 -73.88,-176.3 11.13,-349.73 49.64,-100.86 109.49,-197.09 180.09,-289.34z"/>
   <path class="fil2" d="M14015.24 11895.41c-19.68,6.14 -39.47,12.03 -59.05,18.49 -19.26,6.38 -28.37,23.1 -22.86,40.74 5.43,17.57 22.65,26.5 41.87,20.68 39.51,-11.96 78.92,-24.27 118.22,-36.83 19.19,-6.18 28.36,-23.22 22.86,-40.75 -5.47,-17.6 -22.55,-26.32 -41.91,-20.67 -19.83,5.82 -39.41,12.2 -59.13,18.34zm-37.99 -121.49c-29.28,9.1 -58.67,18.06 -87.88,27.48 -20.5,6.56 -29.99,23.1 -24.31,41.31 5.68,18.09 23.01,26.38 43.57,20.07 58.67,-18.06 117.27,-36.34 175.83,-54.82 20.35,-6.39 29.95,-23.28 24.27,-41.31 -5.61,-18.03 -23.07,-26.32 -43.53,-20.07 -29.39,8.89 -58.64,18.2 -87.95,27.34zm356.34 188.17c-161.86,50.44 -323.68,100.89 -486.02,151.52 -6.28,-10.91 -11.86,-21.77 -18.45,-31.9 -66.75,-102.3 -164.82,-140.33 -281.91,-129.39 -121.99,11.43 -211.07,73.58 -260.77,187.92 -9,20.71 -25.51,28.5 -43.04,20.88 -17.39,-7.55 -24.24,-25.25 -13.97,-45.5 14.6,-28.68 30.51,-56.91 48.26,-83.79 7.05,-10.72 8.29,-18.63 4.62,-30.2 -23.78,-74.79 -47.02,-149.79 -70.31,-224.75 -28.01,-90.38 12.56,-167.36 103.05,-195.65 59.76,-18.73 119.48,-37.4 179.17,-56.09 0.99,-0.32 1.84,-1.03 5.08,-2.9 -1.3,-4.23 -2.82,-9.03 -4.3,-13.83 -9.67,-30.9 -19.26,-61.77 -28.86,-92.67 -11.64,-37.18 -4.62,-60.5 26.67,-82.94 8.89,-6.38 11.26,-11.53 7.52,-21.98 -7.76,-21.94 -13.87,-44.55 -21.13,-66.71 -4.17,-12.66 -2.19,-23.81 5.46,-34.53 21.81,-30.73 43.25,-61.63 65.16,-92.29 12.31,-17.25 30.2,-21.03 45.4,-10.41 15.1,10.62 17.61,28.75 5.54,46.36 -16.79,24.48 -34.57,48.29 -50.76,73.16 -3.67,5.58 -4.94,14.82 -3.35,21.42 4.62,19.01 11.22,37.5 17.32,57.04 8.18,0.53 16.01,0.6 23.74,1.66 29.25,3.88 50.02,17.5 58.6,47.8 10.51,37.15 22.75,73.8 34.89,112.75 14.71,-4.55 28.18,-8.78 41.66,-12.98 33.94,-10.59 67.94,-20.92 101.71,-32 5.22,-1.73 12.06,-6.24 13.44,-10.83 10.72,-36.55 20.39,-73.41 30.79,-111.8 -26.84,-9.52 -52.74,-18.73 -78.56,-27.97 -12.98,-4.59 -26.03,-9.1 -38.95,-13.83 -21.3,-7.83 -30.26,-23.42 -23.99,-41.45 6.28,-17.96 23.39,-25.01 44.49,-17.57 82.48,29.1 164.89,58.46 247.33,87.74 13.02,4.62 26,9.24 38.98,13.9 24.91,8.96 34.72,24.44 27.59,43.49 -6.98,18.63 -23.88,24.17 -47.91,15.7 -35.03,-12.38 -69.99,-24.76 -104.98,-37.07 -0.92,-0.36 -2.08,-0.04 -5.33,-0.04 -9.59,35.56 -19.37,71.65 -28.96,107.81 -0.6,2.29 0.03,5.18 0.91,7.51 13.2,36.2 26.71,72.25 39.69,108.52 5.01,13.93 8.68,28.36 13.51,42.44 10.27,30.09 38.28,49.56 69.29,42.72 33.87,-7.45 66.64,-20.08 101.78,-31.01 -6.11,-19.51 -12.1,-38.56 -18,-57.65 -13.44,-43.67 2.97,-75.45 46.32,-89.04 57.65,-18.09 115.33,-35.98 175.58,-54.75 -2.08,-6.66 -3.91,-12.49 -5.71,-18.27 -27.8,-89.11 -55.74,-178.22 -83.26,-267.41 -11.04,-35.8 14.01,-68.33 49.21,-64.13 21.84,2.61 34.86,16.05 41.24,36.72 21.1,67.91 42.34,135.72 63.47,203.56 1.66,5.36 3.31,10.65 6.03,19.36 16.23,-20.42 30.76,-37.74 44.2,-55.84 15.81,-21.27 36.16,-34.89 61.49,-42.62 72.57,-22.08 144.85,-45.01 217.28,-67.52 83.25,-25.82 162.84,15.42 189.23,98.32 18.03,56.62 35.1,113.49 53.48,170 2.5,7.62 8.96,15.03 15.49,20.15 21.62,17 44.66,32.24 66.14,49.46 19.16,15.38 21.73,34.75 8.61,49.42 -12.81,14.36 -30.94,13.62 -49.18,-2.05 -90.66,-78.1 -195.61,-111.79 -314.78,-101.21 -230.68,20.5 -402.56,236.05 -370.24,464.72 3.24,23 8.61,45.72 13.3,70.52z"/>
   <path class="fil2" d="M14548.23 11895.69c32.14,103.01 136.95,158.29 239.61,126.4 102.66,-31.89 157.97,-137.2 125.87,-239.86 -32.03,-102.58 -137.2,-157.55 -240.07,-125.41 -101.77,31.86 -157.09,137.2 -125.41,238.87zm424.32 234.91c-8.43,0.39 -16.89,1.7 -25.22,0.95 -23.92,-2.22 -36.94,5.68 -44.56,28.23 -0.35,1.02 -0.77,2.01 -1.12,2.96 -16.73,42.4 -97.9,63.78 -133.18,35.03 -12.63,-10.3 -34.11,-9.74 -45.47,1.52 -15.56,15.45 -34.01,20.85 -55.28,16.47 -12.98,-2.64 -25.86,-5.78 -38.81,-8.61 -21.98,-4.79 -36.76,-17.63 -44.62,-38.8 -5.44,-14.61 -25.12,-24.59 -40.64,-21.03 -21.14,4.87 -39.97,0.85 -56.13,-14 -9.35,-8.61 -18.66,-17.25 -28.12,-25.79 -17.64,-15.87 -24.2,-35.28 -19.54,-58.7 2.61,-13.3 -10.02,-32.74 -23.5,-36.23 -22.5,-5.86 -36.9,-19.86 -43.81,-41.84 -3.85,-12.14 -7.62,-24.27 -11.36,-36.44 -6.56,-21.45 -2.68,-40.75 11.78,-58 10.27,-12.24 9.21,-33.83 -2.11,-45.44 -15.28,-15.59 -20.92,-33.9 -16.13,-55.31 2.68,-11.89 5.65,-23.71 7.94,-35.67 4.66,-23.99 18.1,-39.93 41.28,-48.08 12.56,-4.41 23,-25.79 19.47,-38.77 -6.17,-22.44 -1.09,-41.81 14.78,-58.64 7.66,-8.11 15.38,-16.08 22.58,-24.55 16.19,-19.15 36.23,-26.49 60.96,-21.69 12.42,2.47 32.35,-10.02 35.56,-22.34 6.35,-24.37 21.66,-39.33 45.65,-46.14 11.18,-3.17 22.26,-6.91 33.41,-10.33 21.48,-6.53 40.74,-2.47 57.99,11.99 11.54,9.7 33.9,9.14 44.24,-1.34 15.88,-16.05 34.71,-21.56 56.62,-17 12.46,2.64 24.8,5.71 37.26,8.32 22.64,4.69 37.74,17.89 45.75,39.65 4.97,13.62 25.33,24.1 39.51,20.64 22.37,-5.54 41.91,-0.81 58.67,15.24 8.01,7.73 16.09,15.42 24.55,22.61 19.02,16.3 26.32,36.34 21.35,61.07 -2.51,12.35 10.33,32.28 22.68,35.31 23.95,5.89 38.49,20.99 45.44,44.21 3.31,11.21 6.88,22.29 10.37,33.44 6.84,21.98 3.07,41.73 -12.03,59.37 -9.6,11.25 -8.64,33.69 1.97,44.27 16.06,15.95 21.24,34.89 16.66,56.73 -2.58,11.93 -5.68,23.74 -8.01,35.7 -4.59,23.36 -17.85,38.91 -40.33,46.99 -13.3,4.84 -23.53,25.54 -20.07,39.83 5.22,21.73 0.99,41.17 -14.64,57.36 -16.01,16.55 -32.56,32.56 -48.86,48.79 -0.95,-0.63 -1.94,-1.27 -2.93,-1.94z"/>
   <path class="fil2" d="M13612.75 12421.72c68.62,-21.49 105.09,-91.51 83.54,-160.38 -21.31,-68.26 -91.94,-104.81 -160.66,-83.04 -67.66,21.41 -104.17,91.48 -83.01,159.39 21.42,68.68 91.59,105.51 160.13,84.03zm139.49 101.46c-29.14,-7.94 -39.76,9.63 -53.41,28.54 -19.12,26.45 -75.14,33.33 -103.61,18.38 -4.98,-2.58 -14.4,-1.77 -19.23,1.37 -36.76,23.92 -95.92,10.3 -118.81,-27.41 -2.76,-4.55 -10.69,-8.85 -15.95,-8.57 -45.54,2.26 -88.34,-37.57 -89.89,-83.65 -0.21,-5.25 -5.25,-12.66 -10.02,-15.06 -40.67,-20.39 -58.1,-76.94 -36.23,-117.33 2.51,-4.62 1.98,-13.55 -0.95,-17.96 -24.48,-36.9 -11.32,-96.59 26.18,-118.92 4.79,-2.86 9.31,-11.4 8.92,-16.93 -2.89,-42.73 39.05,-89.57 81.35,-88.69 9.35,0.17 14.15,-2.33 18.14,-11.04 17.85,-39.2 77.64,-58 114.33,-36.02 8.15,4.87 13.55,4.41 21.24,-1.06 34.68,-24.48 95.74,-9.95 117.47,26.53 2.93,4.87 11.29,9.56 16.9,9.31 44.49,-2.12 88.9,38.42 90.06,82.27 0.18,5.64 5.3,13.76 10.31,16.23 39.01,19.33 57.89,77.36 35.87,114.61 -4.79,8.08 -4.62,13.55 0.85,21.31 24.66,35.1 10.51,95.96 -25.82,117.69 -4.98,3 -10.16,11.46 -9.56,16.76 2.29,21.3 -4.27,38.73 -19.16,53.27 -12.7,12.38 -25.93,24.23 -38.98,36.37z"/>
   <path class="fil2" d="M13977.24 11773.9c29.32,-9.13 58.57,-18.41 87.95,-27.3 20.46,-6.24 37.93,2.01 43.57,20.04 5.64,18.06 -3.95,34.92 -24.31,41.34 -58.56,18.45 -117.15,36.73 -175.82,54.82 -20.57,6.28 -37.89,-2.01 -43.57,-20.1 -5.68,-18.17 3.81,-34.75 24.31,-41.31 29.21,-9.39 58.59,-18.35 87.87,-27.49z"/>
   <path class="fil2" d="M14015.24 11895.41c19.72,-6.14 39.3,-12.52 59.13,-18.34 19.36,-5.65 36.44,3.07 41.91,20.67 5.5,17.53 -3.67,34.57 -22.86,40.75 -39.3,12.56 -78.71,24.87 -118.22,36.83 -19.22,5.82 -36.44,-3.11 -41.87,-20.68 -5.51,-17.64 3.6,-34.36 22.86,-40.74 19.58,-6.46 39.37,-12.35 59.05,-18.49z"/>
   <path class="fil2" d="M14548.23 11895.69c-31.68,-101.67 23.64,-207.01 125.41,-238.87 102.87,-32.14 208.04,22.83 240.07,125.41 32.1,102.66 -23.21,207.97 -125.87,239.86 -102.66,31.89 -207.47,-23.39 -239.61,-126.4z"/>
   <path class="fil2" d="M13612.75 12421.72c-68.54,21.48 -138.71,-15.35 -160.13,-84.03 -21.16,-67.91 15.35,-137.98 83.01,-159.39 68.72,-21.77 139.35,14.78 160.66,83.04 21.55,68.87 -14.92,138.89 -83.54,160.38z"/>
   <path class="fil0" d="M9991.78 11242.81c-9.42,25.01 -18.17,50.27 -28.36,74.93 -29.67,71.65 -52.56,147.42 -91.65,213.57 -54.33,91.86 -138.57,116.45 -259.54,69.43 39.69,-19.55 79.48,-38.77 118.96,-58.67 34,-17.11 83.08,-26.42 98.35,-54.15 38.42,-69.57 64.74,-146.55 89.92,-222.5 36.13,-109.04 80.15,-136.63 192.48,-107 196,51.76 391.51,105.34 587.44,157.27 111.52,29.53 197.49,92.96 251.29,194.42 48.58,91.76 90.38,187.04 136.17,280.28 40.5,82.48 82.41,164.32 127.53,254.07 -29.74,-4.48 -62.87,-9.52 -102.48,-15.52 -21.2,79.06 -40.78,159.45 -65.16,238.37 -7.37,23.95 -29.42,62.72 -42.19,61.77 -29.74,-2.29 -68.83,-17.35 -84.39,-40.5 -26.7,-39.93 -37.71,-90.24 -56.55,-135.68 -20.25,-48.89 -41.94,-97.19 -62.97,-145.76l-21.52 3.31c-23.85,109.58 -47.73,219.15 -71.89,329.99 -68.94,7.94 -86.72,-20.85 -78.04,-80.5 14.57,-99.73 25.33,-200.06 37.75,-300.53 -131.16,-44.45 -255.8,-88.16 -381.71,-127.85 -18.16,-5.72 -44.31,3.53 -63.43,12.81 -70.23,34.07 -130.14,21.69 -183.83,-32.95 -44.62,-45.37 -105.27,-36.31 -135.18,21.44 -35.85,69.15 -72.43,138.15 -103.12,209.63 -23.21,54.11 -53.48,64.06 -112.71,25.15 67.27,-144.32 59.79,-316.83 199.03,-440.34 107.21,-95.04 95.64,-247.37 139.67,-373.38 -11.25,-3.7 -22.58,-7.41 -33.87,-11.11z"/>
   <path class="fil0" d="M10386.45 12206.09c34.54,-99.03 69.08,-198.05 104.81,-300.46 37.61,10.12 68.76,18.48 109.54,29.38 -42.86,93.67 -80.75,183.63 -126.22,269.56 -8.86,16.72 -47.31,17.75 -72.11,26l-16.02 -24.48z"/>
   <path class="fil0" d="M9967.74 11828.85c93.84,9.14 121.81,47.59 93.45,126.3 -18.31,50.8 -28.86,104.35 -44.1,161.08 -53.44,6.38 -81.35,-7.91 -72.04,-70.95 10.73,-72.32 15.53,-145.45 22.69,-216.43z"/>
   <path class="fil1" d="M22974.87 11298.17c0,357.82 -290.05,647.84 -647.84,647.84 -357.82,0 -647.88,-290.02 -647.88,-647.84 0,-357.82 290.06,-647.84 647.88,-647.84 357.79,0 647.84,290.02 647.84,647.84z"/>
   <path class="fil1" d="M3511.46 11462.85c0,357.82 -290.09,647.84 -647.88,647.84 -357.79,0 -647.84,-290.02 -647.84,-647.84 0,-357.83 290.05,-647.84 647.84,-647.84 357.79,0 647.88,290.01 647.88,647.84z"/>
  </g>
 </g>
</svg>
